<svg xmlns="http://www.w3.org/2000/svg" xmlns:xlink="http://www.w3.org/1999/xlink" width="800" height="800"><defs><path id="a" d="M0-2h800v800H0z"/></defs><clipPath id="b"><use xlink:href="#a" overflow="visible"/></clipPath><g clip-path="url(#b)"><path fill="#495359" d="M419.532 586.442h-39.065s3.154 55.429-16.257 55.429h71.577c-19.409 0-16.255-55.429-16.255-55.429z"/><path fill="#56636D" d="M524.116 444.569H275.884a7.14 7.14 0 0 0-7.139 7.139V610.79a6.224 6.224 0 0 0 6.224 6.224h250.063a6.224 6.224 0 0 0 6.224-6.224V451.708a7.14 7.14 0 0 0-7.14-7.139z"/><path fill="#4BE8A0" d="M277.257 452.807h245.487v131.805H277.257z"/><path fill="#4B575E" d="M277.165 583.513h245.67v7.689h-245.67z"/><circle fill="#5E6F77" cx="400" cy="603.788" r="6.453"/><path fill="#4B575E" d="M625.143 585.968l7.32 3.456-19.55 41.402-7.32-3.456z"/><path fill="#4B575E" d="M612.551 544.85l7.619-2.732 15.452 43.096-7.62 2.731z"/><path fill="#546168" d="M586.339 625.515h47.554v4.553h-47.554z"/><path fill="#4B575E" d="M634.428 635.606h-48.623a3.425 3.425 0 0 1-3.415-3.415 3.425 3.425 0 0 1 3.415-3.415h48.623a3.425 3.425 0 0 1 3.415 3.415 3.426 3.426 0 0 1-3.415 3.415z"/><circle fill="#4B575E" cx="630.946" cy="583.273" r="7.841"/><circle fill="#A1AAAF" cx="630.946" cy="583.273" r="4.691"/><circle fill="#F2DD64" cx="587.631" cy="551.074" r="10.351"/><path fill="#4B575E" d="M621.003 534.499l-10.795 2.367-31.521-5.842 9.211 42.003 26.184-18.497 10.795-2.367s9.529-2.296 7.635-10.932c-1.894-8.635-11.509-6.732-11.509-6.732z"/><defs><path id="c" d="M621.003 534.499l-10.795 2.367-31.521-5.842 9.211 42.003 26.184-18.497 10.795-2.367s9.529-2.296 7.635-10.932c-1.894-8.635-11.509-6.732-11.509-6.732z"/></defs><clipPath id="d"><use xlink:href="#c" overflow="visible"/></clipPath><path clip-path="url(#d)" fill="#606E75" d="M574.333 553.833l69.667-17.5-19.948-19.948-60.719 11.115z"/><path fill="#F2F2F2" d="M447.257 633.798H137.909v24.719h12.348V798h127.001V658.517h245.484V798h127V658.517h12.349v-24.719z"/><path fill="#CECECE" d="M524.076 658.833h124.667v1H524.076zm0 50h124.667v1H524.076zm0 50h124.667v1H524.076zm-372.818-100h124.667v1H151.258zm0 50h124.667v1H151.258zm0 50h124.667v1H151.258z"/><circle fill="#7A7A7A" cx="213.591" cy="667.5" r="4.167"/><circle fill="#7A7A7A" cx="213.591" cy="717.5" r="4.167"/><circle fill="#7A7A7A" cx="213.591" cy="767.5" r="4.167"/><circle fill="#7A7A7A" cx="586.409" cy="667.5" r="4.167"/><circle fill="#7A7A7A" cx="586.409" cy="717.5" r="4.167"/><circle fill="#7A7A7A" cx="586.409" cy="767.5" r="4.167"/><g fill="#B8BDBF"><path opacity=".5" d="M150.257 658.517l127.001 20.816v-20.816zm372.652 0l127 20.816v-20.816z"/><path opacity=".5" d="M137.756 647h524.369v12.517H137.756z"/></g><path fill="#5D7D93" d="M546.656 622.822c-5.116-16.485-56.275-89.813-56.275-89.813v-3.469a7.43 7.43 0 0 0-6.094-7.309l-50.419-9.22c-8.893 5.085-20.789 8.197-33.869 8.197s-24.976-3.112-33.869-8.197l-50.419 9.22a7.43 7.43 0 0 0-6.094 7.309v3.469s-51.159 73.328-56.275 89.813c0 0-5.684 11.369 3.979 18.758 9.663 7.39 61.028 8.657 61.028 8.657s-.774-9.794 8.89-9.226l8.117-16.963-24.033-6.343 15.916-20.464v-10.8H472.76v10.8l15.916 20.464-24.033 6.343 8.117 16.963c9.663-.569 8.889 9.226 8.889 9.226s51.365-1.268 61.028-8.657c9.664-7.389 3.979-18.758 3.979-18.758z"/><path fill="#FDD9A6" d="M429.333 485h-58.666l-1.917 17.25c5.083 10.583 31.25 7.083 31.25 7.083s26.167 3.5 31.25-7.083L429.333 485z"/><path fill="#F2F2F2" d="M431.25 502.25s-9.5 3-31.25 3-31.25-3-31.25-3l-10.992 12.293C369.533 526.319 400 525.75 400 525.75s30.467.569 42.242-11.207L431.25 502.25z"/><path fill="#564841" d="M440.427 396.521h3.289c-9.827-20.482-45.089-21.021-45.089-21.021s-35.262.539-45.089 21.021h3.289s-9.673 21.629-9.094 26.479c.578 4.851-.073 21.81 9.514 34.317l.005.007c2.171 6.62 4.045 10.882 4.045 10.882l9.37 16.794s27.383 6.355 27.961 10.667c.578-4.312 30.706-10.667 30.706-10.667l6.624-16.794s1.874-4.262 4.045-10.882a.03.03 0 0 0 .005-.007c9.587-12.506 8.936-29.466 9.514-34.317.578-4.851-9.095-26.479-9.095-26.479z"/><path fill="#4B575E" d="M492.333 801.049H307.667c-5.523 0-10-4.477-10-10v-178.5c0-26.234 21.266-47.5 47.5-47.5h109.667c26.234 0 47.5 21.266 47.5 47.5v178.5c-.001 5.523-4.478 10-10.001 10z"/><path fill="#363E42" d="M456.048 799.079H343.952V636.52c0-26.234 21.266-47.5 47.5-47.5h17.097c26.233 0 47.5 21.266 47.5 47.5v162.559z"/><circle fill="#363E42" cx="400" cy="620.549" r="3.5"/><g fill="#7C8D93"><path opacity=".5" d="M417.165 636.161a17.385 17.385 0 0 0-2.629-6.354 3.495 3.495 0 0 1-4.284-.51 3.494 3.494 0 0 1-.51-4.284 17.385 17.385 0 0 0-6.354-2.629 3.494 3.494 0 0 1-3.389 2.666 3.494 3.494 0 0 1-3.389-2.666 17.385 17.385 0 0 0-6.354 2.629 3.495 3.495 0 0 1-.51 4.284 3.495 3.495 0 0 1-4.284.51 17.385 17.385 0 0 0-2.629 6.354 3.493 3.493 0 0 1 2.665 3.389 3.495 3.495 0 0 1-2.665 3.389 17.385 17.385 0 0 0 2.629 6.354 3.495 3.495 0 0 1 4.284.51 3.492 3.492 0 0 1 .51 4.283 17.385 17.385 0 0 0 6.354 2.629 3.494 3.494 0 0 1 3.389-2.666 3.494 3.494 0 0 1 3.389 2.666 17.385 17.385 0 0 0 6.354-2.629 3.494 3.494 0 0 1 .51-4.283 3.494 3.494 0 0 1 4.284-.51 17.385 17.385 0 0 0 2.629-6.354 3.493 3.493 0 0 1-2.665-3.389 3.494 3.494 0 0 1 2.665-3.389z"/><path d="M417.165 635.161a17.385 17.385 0 0 0-2.629-6.354 3.495 3.495 0 0 1-4.284-.51 3.494 3.494 0 0 1-.51-4.284 17.385 17.385 0 0 0-6.354-2.629 3.494 3.494 0 0 1-3.389 2.666 3.494 3.494 0 0 1-3.389-2.666 17.385 17.385 0 0 0-6.354 2.629 3.495 3.495 0 0 1-.51 4.284 3.495 3.495 0 0 1-4.284.51 17.385 17.385 0 0 0-2.629 6.354 3.493 3.493 0 0 1 2.665 3.389 3.495 3.495 0 0 1-2.665 3.389 17.385 17.385 0 0 0 2.629 6.354 3.495 3.495 0 0 1 4.284.51 3.492 3.492 0 0 1 .51 4.283 17.385 17.385 0 0 0 6.354 2.629 3.494 3.494 0 0 1 3.389-2.666 3.494 3.494 0 0 1 3.389 2.666 17.385 17.385 0 0 0 6.354-2.629 3.494 3.494 0 0 1 .51-4.283 3.494 3.494 0 0 1 4.284-.51 17.385 17.385 0 0 0 2.629-6.354 3.493 3.493 0 0 1-2.665-3.389 3.494 3.494 0 0 1 2.665-3.389z"/></g><path fill="#FFF" d="M258.76 382h-230V175.206c0-6.189 5.017-11.206 11.205-11.206h207.589c6.189 0 11.206 5.017 11.206 11.206V382z"/><defs><path id="e" d="M258.76 382h-230V175.206c0-6.189 5.017-11.206 11.205-11.206h207.589c6.189 0 11.206 5.017 11.206 11.206V382z"/></defs><clipPath id="f"><use xlink:href="#e" overflow="visible"/></clipPath><path clip-path="url(#f)" fill="#FFF" d="M15.683 152.667h263.333v30.667H15.683z"/><circle fill="#F9C32D" cx="46.376" cy="171.529" r="2.667"/><circle fill="#EA4747" cx="37.757" cy="171.529" r="2.667"/><circle fill="#49E872" cx="54.995" cy="171.529" r="2.667"/><path fill="#F4F4F4" d="M212.447 179.333H75.585c-3.063 0-5.569-2.506-5.569-5.568 0-3.063 2.506-5.568 5.569-5.568h136.863c3.063 0 5.569 2.506 5.569 5.568-.001 3.062-2.507 5.568-5.57 5.568z"/><path fill="#DBDBDB" d="M37.757 259h44.259v44.259H37.757zm0-63.25h44.259v44.259H37.757zm0 126.5h44.259v44.259H37.757zm191.509-93.241h-135a2.759 2.759 0 0 1-2.75-2.75 2.759 2.759 0 0 1 2.75-2.75h135a2.759 2.759 0 0 1 2.75 2.75 2.757 2.757 0 0 1-2.75 2.75zm0-11h-135a2.759 2.759 0 0 1-2.75-2.75 2.759 2.759 0 0 1 2.75-2.75h135a2.759 2.759 0 0 1 2.75 2.75 2.757 2.757 0 0 1-2.75 2.75zm0 22h-135a2.759 2.759 0 0 1-2.75-2.75 2.759 2.759 0 0 1 2.75-2.75h135a2.759 2.759 0 0 1 2.75 2.75 2.757 2.757 0 0 1-2.75 2.75zm0 52.25h-135a2.758 2.758 0 0 1-2.75-2.75 2.759 2.759 0 0 1 2.75-2.75h135a2.759 2.759 0 0 1 2.75 2.75 2.757 2.757 0 0 1-2.75 2.75zm0-11h-135a2.758 2.758 0 0 1-2.75-2.75 2.759 2.759 0 0 1 2.75-2.75h135a2.759 2.759 0 0 1 2.75 2.75 2.757 2.757 0 0 1-2.75 2.75zm0 22h-135a2.758 2.758 0 0 1-2.75-2.75 2.759 2.759 0 0 1 2.75-2.75h135a2.759 2.759 0 0 1 2.75 2.75 2.757 2.757 0 0 1-2.75 2.75zm0 52.25h-135a2.758 2.758 0 0 1-2.75-2.75 2.759 2.759 0 0 1 2.75-2.75h135a2.759 2.759 0 0 1 2.75 2.75 2.757 2.757 0 0 1-2.75 2.75zm0-11h-135a2.758 2.758 0 0 1-2.75-2.75 2.759 2.759 0 0 1 2.75-2.75h135a2.759 2.759 0 0 1 2.75 2.75 2.757 2.757 0 0 1-2.75 2.75zm0 22h-135a2.758 2.758 0 0 1-2.75-2.75 2.759 2.759 0 0 1 2.75-2.75h135a2.759 2.759 0 0 1 2.75 2.75 2.757 2.757 0 0 1-2.75 2.75z"/><path fill="#F4F4F4" d="M419.702 239.807l-124.844.397c-3.981.013-7.228 3.28-7.216 7.262l.254 80.106-19.589 28.14 31.811-14.234 119.904-.381c3.981-.013 7.228-3.281 7.216-7.262l-.276-86.811c-.011-3.982-3.279-7.229-7.26-7.217z"/><path fill="#56636D" d="M407.499 293.767c-6.214-2.03-8.797-4.554-8.797-4.554l-.208.198c-1.845 1.737-3.886 2.758-5.745 2.758h-.176c-1.859 0-3.9-1.022-5.746-2.758l-.208-.198s-2.583 2.524-8.796 4.554c-9.173 3.426-6.419 17.371-6.421 17.479.289 1.553.457 2.087.604 2.147 9.211 4.101 32.099 4.101 41.31 0 .146-.06.315-.594.604-2.147-.003-.108 2.788-13.998-6.421-17.479zm0 0"/><path fill="#56636D" d="M402.294 275.977l-.077-.084c-.516-.472-.476-.445-.476-.445s.9-4.542.178-6.69c-1.133-3.431-7.902-5.729-9.26-5.997 0-.002-.826-.167-.878-.168 0 0-1.068-.216-2.306.324-.806.31-5.021 2.221-6.217 5.841-.721 2.148.179 6.69.179 6.69s.041-.027-.476.445l-.077.084c-.349.396-.263 1.637.119 2.928.346 1.293.797 1.641.905 1.943 1.095 5.14 4.902 9.53 8.782 9.53s7.486-4.39 8.58-9.53c.108-.303.559-.65.905-1.943.382-1.292.478-2.617.119-2.928zM353.516 312.5h-52a3.51 3.51 0 0 1-3.5-3.5 3.51 3.51 0 0 1 3.5-3.5h52a3.51 3.51 0 0 1 3.5 3.5 3.51 3.51 0 0 1-3.5 3.5zm0-11.241h-52a3.51 3.51 0 0 1-3.5-3.5 3.51 3.51 0 0 1 3.5-3.5h52a3.51 3.51 0 0 1 3.5 3.5 3.51 3.51 0 0 1-3.5 3.5zM335.291 273h-29.55c-2.874 0-5.225-2.351-5.225-5.225 0-2.874 2.351-5.225 5.225-5.225h29.55c2.874 0 5.225 2.351 5.225 5.225 0 2.874-2.351 5.225-5.225 5.225z"/><path fill="#4BE8A0" d="M170.042 204.333H95.808a4.305 4.305 0 0 1-4.292-4.292 4.304 4.304 0 0 1 4.292-4.292h74.234a4.305 4.305 0 0 1 4.292 4.292 4.305 4.305 0 0 1-4.292 4.292zm-33.667 62.508H95.808a4.305 4.305 0 0 1-4.292-4.292 4.305 4.305 0 0 1 4.292-4.292h40.567a4.305 4.305 0 0 1 4.292 4.292 4.305 4.305 0 0 1-4.292 4.292zm11.333 63.992h-51.9a4.305 4.305 0 0 1-4.292-4.292 4.305 4.305 0 0 1 4.292-4.292h51.9a4.304 4.304 0 0 1 4.292 4.292 4.304 4.304 0 0 1-4.292 4.292z"/><path fill="#FFF" d="M539.496 251h230V44.206c0-6.189-5.017-11.206-11.206-11.206H550.701c-6.189 0-11.205 5.017-11.205 11.206V251z"/><defs><path id="g" d="M539.496 251h230V44.206c0-6.189-5.017-11.206-11.206-11.206H550.701c-6.189 0-11.205 5.017-11.205 11.206V251z"/></defs><clipPath id="h"><use xlink:href="#g" overflow="visible"/></clipPath><path clip-path="url(#h)" fill="#FFF" d="M519.24 21.667h263.333v30.667H519.24z"/><circle fill="#F9C32D" cx="560" cy="40.529" r="2.667"/><circle fill="#EA4747" cx="568.619" cy="40.529" r="2.667"/><circle fill="#49E872" cx="551.381" cy="40.529" r="2.667"/><path fill="#F4F4F4" d="M585.809 48.333h136.863c3.063 0 5.568-2.506 5.568-5.569s-2.506-5.569-5.568-5.569H585.809c-3.063 0-5.569 2.506-5.569 5.569s2.506 5.569 5.569 5.569zm-207.255 60.474l124.844.397c3.981.013 7.228 3.28 7.216 7.262l-.254 80.105 19.589 28.14-31.811-14.235-119.904-.381c-3.981-.013-7.228-3.281-7.216-7.262l.276-86.811c.011-3.98 3.279-7.227 7.26-7.215z"/><path fill="#56636D" d="M390.757 162.767c-9.209 3.481-6.418 17.371-6.421 17.479.289 1.553.457 2.087.604 2.146 9.211 4.101 32.099 4.101 41.31 0 .146-.06.315-.594.604-2.146-.002-.108 2.752-14.053-6.421-17.479-6.214-2.03-8.796-4.554-8.796-4.554l-.208.198c-1.846 1.737-3.886 2.758-5.746 2.758h-.176c-1.859 0-3.9-1.021-5.745-2.758l-.208-.198s-2.583 2.524-8.797 4.554zm0 0"/><path fill="#56636D" d="M395.962 144.977c-.36.311-.263 1.637.119 2.928.345 1.293.796 1.641.905 1.943 1.095 5.14 4.701 9.53 8.58 9.53 3.88 0 7.687-4.39 8.782-9.53.108-.303.559-.65.905-1.943.382-1.291.468-2.532.119-2.928l-.077-.084c-.516-.472-.475-.445-.475-.445s.9-4.542.179-6.69c-1.196-3.62-5.411-5.531-6.217-5.841-1.237-.54-2.306-.324-2.306-.324-.052.001-.878.166-.878.168-1.358.268-8.127 2.566-9.26 5.997-.722 2.148.178 6.69.178 6.69s.04-.027-.476.445l-.078.084zM444.74 181.5h52a3.51 3.51 0 0 0 3.5-3.5 3.51 3.51 0 0 0-3.5-3.5h-52a3.51 3.51 0 0 0-3.5 3.5 3.51 3.51 0 0 0 3.5 3.5zm24.167-11.241h27.833a3.51 3.51 0 0 0 3.5-3.5 3.51 3.51 0 0 0-3.5-3.5h-27.833a3.51 3.51 0 0 0-3.5 3.5 3.51 3.51 0 0 0 3.5 3.5zm0-11h27.833a3.51 3.51 0 0 0 3.5-3.5 3.51 3.51 0 0 0-3.5-3.5h-27.833a3.51 3.51 0 0 0-3.5 3.5 3.51 3.51 0 0 0 3.5 3.5zm0-11h27.833a3.51 3.51 0 0 0 3.5-3.5 3.51 3.51 0 0 0-3.5-3.5h-27.833a3.51 3.51 0 0 0-3.5 3.5 3.51 3.51 0 0 0 3.5 3.5zm-11.074 21.926h-13.427a3.51 3.51 0 0 1-3.5-3.5v-20.592a3.51 3.51 0 0 1 3.5-3.5h13.427a3.51 3.51 0 0 1 3.5 3.5v20.592a3.51 3.51 0 0 1-3.5 3.5z"/><circle fill="#4BE8A0" cx="571.76" cy="152.259" r="15"/><circle fill="#4BE8A0" cx="571.76" cy="88.605" r="15"/><circle fill="#4BE8A0" cx="571.76" cy="215.913" r="15"/><path d="M749.13 99.783h-99a2.758 2.758 0 0 1-2.75-2.75 2.757 2.757 0 0 1 2.75-2.75h99a2.758 2.758 0 0 1 2.75 2.75 2.757 2.757 0 0 1-2.75 2.75zm0-16.855h-99a2.758 2.758 0 0 1-2.75-2.75 2.757 2.757 0 0 1 2.75-2.75h99a2.758 2.758 0 0 1 2.75 2.75 2.758 2.758 0 0 1-2.75 2.75zm0 8.427h-99a2.758 2.758 0 0 1-2.75-2.75 2.758 2.758 0 0 1 2.75-2.75h99a2.759 2.759 0 0 1 2.75 2.75 2.757 2.757 0 0 1-2.75 2.75zm0 72.082h-99a2.758 2.758 0 0 1-2.75-2.75 2.757 2.757 0 0 1 2.75-2.75h99a2.758 2.758 0 0 1 2.75 2.75 2.758 2.758 0 0 1-2.75 2.75zm0-16.856h-99a2.758 2.758 0 0 1-2.75-2.75 2.757 2.757 0 0 1 2.75-2.75h99a2.758 2.758 0 0 1 2.75 2.75 2.757 2.757 0 0 1-2.75 2.75zm0 8.428h-99a2.758 2.758 0 0 1-2.75-2.75 2.758 2.758 0 0 1 2.75-2.75h99a2.759 2.759 0 0 1 2.75 2.75 2.757 2.757 0 0 1-2.75 2.75zm0 72.081h-99a2.757 2.757 0 0 1-2.75-2.75 2.758 2.758 0 0 1 2.75-2.75h99a2.759 2.759 0 0 1 2.75 2.75 2.757 2.757 0 0 1-2.75 2.75zm0-16.855h-99a2.758 2.758 0 0 1-2.75-2.75 2.758 2.758 0 0 1 2.75-2.75h99a2.759 2.759 0 0 1 2.75 2.75 2.758 2.758 0 0 1-2.75 2.75zm0 8.428h-99a2.758 2.758 0 0 1-2.75-2.75 2.758 2.758 0 0 1 2.75-2.75h99a2.759 2.759 0 0 1 2.75 2.75 2.758 2.758 0 0 1-2.75 2.75z" fill="#DBDBDB"/><path d="M622.239 93.939h-6.478a2.1 2.1 0 0 1-2.094-2.095v-6.478a2.1 2.1 0 0 1 2.094-2.094h6.478a2.1 2.1 0 0 1 2.094 2.094v6.478a2.1 2.1 0 0 1-2.094 2.095zm-14.5 0h-6.478a2.1 2.1 0 0 1-2.094-2.095v-6.478a2.1 2.1 0 0 1 2.094-2.094h6.478a2.1 2.1 0 0 1 2.094 2.094v6.478a2.1 2.1 0 0 1-2.094 2.095zm29 0h-6.478a2.1 2.1 0 0 1-2.094-2.095v-6.478a2.1 2.1 0 0 1 2.094-2.094h6.478a2.1 2.1 0 0 1 2.094 2.094v6.478a2.1 2.1 0 0 1-2.094 2.095zm-29 63.653h-6.478a2.1 2.1 0 0 1-2.094-2.094v-6.478a2.1 2.1 0 0 1 2.094-2.094h6.478a2.1 2.1 0 0 1 2.094 2.094v6.478a2.1 2.1 0 0 1-2.094 2.094zm14.5 63.654h-6.478a2.1 2.1 0 0 1-2.094-2.094v-6.478a2.1 2.1 0 0 1 2.094-2.094h6.478a2.1 2.1 0 0 1 2.094 2.094v6.478a2.1 2.1 0 0 1-2.094 2.094zm-14.5 0h-6.478a2.1 2.1 0 0 1-2.094-2.094v-6.478a2.1 2.1 0 0 1 2.094-2.094h6.478a2.1 2.1 0 0 1 2.094 2.094v6.478a2.1 2.1 0 0 1-2.094 2.094z" fill="#4BE8A0"/></g></svg>